<svg width="276" height="126" viewBox="0 0 276 126" fill="none" xmlns="http://www.w3.org/2000/svg">
<path d="M131.53 27.4688V53.473H127.265V35.6629L119.333 53.473H116.377L108.407 35.6629V53.473H104.142V27.4688H108.744L117.873 47.8606L126.965 27.4688H131.53ZM155.695 32.8567L143.048 63.1638H138.633L142.824 53.1363L134.704 32.8567H139.456L145.256 48.5715L151.28 32.8567H155.695ZM167.482 53.7349C165.736 53.7349 164.165 53.4356 162.768 52.8369C161.371 52.2133 160.273 51.3403 159.475 50.2178C158.677 49.0953 158.278 47.7858 158.278 46.2891H162.843C162.942 47.4116 163.379 48.3345 164.152 49.0579C164.95 49.7813 166.06 50.143 167.482 50.143C168.954 50.143 170.101 49.7938 170.924 49.0953C171.748 48.372 172.159 47.449 172.159 46.3265C172.159 45.4535 171.897 44.7426 171.373 44.1938C170.875 43.645 170.239 43.221 169.465 42.9217C168.717 42.6223 167.669 42.2981 166.322 41.9488C164.626 41.4999 163.242 41.0509 162.169 40.6019C161.121 40.1279 160.223 39.4046 159.475 38.4317C158.727 37.4589 158.353 36.1618 158.353 34.5404C158.353 33.0438 158.727 31.7342 159.475 30.6118C160.223 29.4893 161.271 28.6287 162.618 28.03C163.965 27.4314 165.524 27.1321 167.295 27.1321C169.814 27.1321 171.872 27.7681 173.469 29.0403C175.09 30.2875 175.988 32.0086 176.163 34.2037H171.448C171.373 33.2558 170.924 32.4451 170.101 31.7717C169.278 31.0982 168.193 30.7614 166.846 30.7614C165.624 30.7614 164.626 31.0732 163.853 31.6968C163.08 32.3204 162.693 33.2184 162.693 34.3908C162.693 35.189 162.93 35.85 163.404 36.3738C163.903 36.8727 164.526 37.2718 165.275 37.5712C166.023 37.8705 167.046 38.1948 168.343 38.544C170.064 39.0179 171.461 39.4919 172.533 39.9658C173.631 40.4397 174.554 41.1756 175.302 42.1733C176.075 43.1462 176.462 44.4557 176.462 46.102C176.462 47.4241 176.1 48.6713 175.377 49.8437C174.679 51.016 173.643 51.9639 172.271 52.6873C170.924 53.3857 169.328 53.7349 167.482 53.7349ZM185.761 35.8874C186.484 34.9396 187.469 34.1413 188.716 33.4928C189.964 32.8443 191.373 32.52 192.944 32.52C194.74 32.52 196.374 32.969 197.846 33.867C199.343 34.74 200.515 35.9747 201.363 37.5712C202.211 39.1676 202.635 41.001 202.635 43.0713C202.635 45.1417 202.211 47 201.363 48.6463C200.515 50.2677 199.343 51.5399 197.846 52.4628C196.374 53.3608 194.74 53.8098 192.944 53.8098C191.373 53.8098 189.976 53.498 188.754 52.8744C187.532 52.2258 186.534 51.4276 185.761 50.4797V63.2761H181.495V32.8567H185.761V35.8874ZM198.295 43.0713C198.295 41.6495 197.996 40.4273 197.397 39.4045C196.823 38.3569 196.05 37.5712 195.077 37.0473C194.129 36.4986 193.107 36.2242 192.009 36.2242C190.936 36.2242 189.914 36.4986 188.941 37.0473C187.993 37.5961 187.22 38.3943 186.621 39.442C186.047 40.4896 185.761 41.7244 185.761 43.1462C185.761 44.568 186.047 45.8152 186.621 46.8878C187.22 47.9354 187.993 48.7336 188.941 49.2824C189.914 49.8312 190.936 50.1056 192.009 50.1056C193.107 50.1056 194.129 49.8312 195.077 49.2824C196.05 48.7087 196.823 47.8855 197.397 46.8129C197.996 45.7404 198.295 44.4931 198.295 43.0713ZM205.432 43.0713C205.432 41.001 205.856 39.1676 206.704 37.5712C207.577 35.9747 208.749 34.74 210.221 33.867C211.717 32.969 213.364 32.52 215.16 32.52C216.781 32.52 218.19 32.8443 219.388 33.4928C220.61 34.1164 221.583 34.9021 222.306 35.85V32.8567H226.609V53.473H222.306V50.4049C221.583 51.3777 220.598 52.1884 219.35 52.8369C218.103 53.4855 216.681 53.8098 215.085 53.8098C213.314 53.8098 211.692 53.3608 210.221 52.4628C208.749 51.5399 207.577 50.2677 206.704 48.6463C205.856 47 205.432 45.1417 205.432 43.0713ZM222.306 43.1462C222.306 41.7244 222.007 40.4896 221.408 39.442C220.834 38.3943 220.074 37.5961 219.126 37.0473C218.178 36.4986 217.155 36.2242 216.058 36.2242C214.96 36.2242 213.937 36.4986 212.99 37.0473C212.042 37.5712 211.268 38.3569 210.67 39.4045C210.096 40.4273 209.809 41.6495 209.809 43.0713C209.809 44.4931 210.096 45.7404 210.67 46.8129C211.268 47.8855 212.042 48.7087 212.99 49.2824C213.962 49.8312 214.985 50.1056 216.058 50.1056C217.155 50.1056 218.178 49.8312 219.126 49.2824C220.074 48.7336 220.834 47.9354 221.408 46.8878C222.007 45.8152 222.306 44.568 222.306 43.1462ZM230.79 43.1462C230.79 41.0259 231.214 39.1676 232.062 37.5712C232.935 35.9498 234.132 34.7026 235.654 33.8295C237.175 32.9565 238.921 32.52 240.892 32.52C243.386 32.52 245.444 33.1186 247.066 34.316C248.712 35.4883 249.822 37.1721 250.396 39.3671H245.794C245.419 38.3444 244.821 37.5462 243.998 36.9725C243.174 36.3988 242.139 36.1119 240.892 36.1119C239.146 36.1119 237.749 36.7355 236.701 37.9827C235.679 39.205 235.167 40.9261 235.167 43.1462C235.167 45.3662 235.679 47.0998 236.701 48.347C237.749 49.5942 239.146 50.2178 240.892 50.2178C243.362 50.2178 244.995 49.1327 245.794 46.9626H250.396C249.797 49.0579 248.675 50.7292 247.028 51.9764C245.382 53.1986 243.337 53.8098 240.892 53.8098C238.921 53.8098 237.175 53.3732 235.654 52.5002C234.132 51.6022 232.935 50.355 232.062 48.7586C231.214 47.1372 230.79 45.2664 230.79 43.1462ZM273.542 42.6598C273.542 43.433 273.492 44.1315 273.392 44.7551H257.64C257.765 46.4014 258.376 47.7234 259.473 48.7212C260.571 49.7189 261.918 50.2178 263.514 50.2178C265.809 50.2178 267.43 49.2575 268.378 47.3368H272.981C272.357 49.2325 271.222 50.7915 269.576 52.0138C267.954 53.2111 265.934 53.8098 263.514 53.8098C261.544 53.8098 259.773 53.3732 258.201 52.5002C256.655 51.6022 255.432 50.355 254.534 48.7586C253.661 47.1372 253.225 45.2664 253.225 43.1462C253.225 41.0259 253.649 39.1676 254.497 37.5712C255.37 35.9498 256.58 34.7026 258.126 33.8295C259.698 32.9565 261.494 32.52 263.514 32.52C265.46 32.52 267.193 32.944 268.715 33.7921C270.237 34.6402 271.422 35.8375 272.27 37.3841C273.118 38.9057 273.542 40.6642 273.542 42.6598ZM269.089 41.3128C269.064 39.7413 268.503 38.4816 267.406 37.5337C266.308 36.5859 264.949 36.1119 263.327 36.1119C261.855 36.1119 260.596 36.5859 259.548 37.5337C258.5 38.4567 257.877 39.7164 257.677 41.3128H269.089Z" fill="white"/>
<rect opacity="0.2" width="74.8323" height="74.8323" rx="37.4161" fill="white"/>
<rect x="32.7391" y="31.1801" width="49.8882" height="49.8882" rx="24.9441" fill="white"/>
</svg>
